<svg id="Capa_1" data-name="Capa 1" xmlns="http://www.w3.org/2000/svg" viewBox="0 0 809.42 471.15"><defs><style>.cls-1{fill:#98d6dd;}.cls-2,.cls-3{fill:none;stroke-miterlimit:10;}.cls-2{stroke:#fff;stroke-width:0.78px;}.cls-3{stroke:#a5a5a5;stroke-width:1.5px;}</style></defs><title>que-es-ruta-tic</title><path class="cls-1" d="M-8.6-6.64V321.84S164,451.13,412.13,451c264.18-.15,406.44-117.2,406.44-117.2V-6.64Z"/><path class="cls-2" d="M822.78,56.33c-53.41-23.58-117,5.37-147.06,52-13.2,20.49-21.9,43.47-31,66.09-14.1,35.1-29,66.64-60.11,90.18C542,296.92,487.7,301.1,436.21,294.86"/><path class="cls-2" d="M604.34,277.09c-34.33,28.89-79,42.16-123.58,40.34"/><path class="cls-3" d="M-10.7,337.91C82.93,411.32,225.61,457.3,343.4,462.18"/><path class="cls-3" d="M-10.7,354.47C23.15,383.76,77,411.7,118.38,428"/></svg>