<svg id="Capa_1" data-name="Capa 1" xmlns="http://www.w3.org/2000/svg" viewBox="0 0 1926.27 834.45"><defs><style>.cls-1{fill:#f4f4f4;opacity:0.8;}.cls-2{fill:none;stroke:#a5a5a5;stroke-miterlimit:10;stroke-width:0.6px;}</style></defs><title>que-es-ruta-tic</title><path class="cls-1" d="M-10.42,188.9c10-15.49,131.78-41.62,162-45.07,161.78-18.47,314.52,18.14,471.93,59.6C861.06,266,1113.86,325.93,1358.43,258c196.94-54.71,408-148.84,586.47-258,0,0,.11,17.59.3,60.07.14,30.52,0,70.33,0,94.9,0,68.12-.14,112.11-1.47,188.83-.89,51.39-1,90.45-1,153,0,6.73,0,117.65,0,117.65C1738.17,728.82,1489.13,775.4,1260.8,780.67,1117.55,784,974.67,761.34,835,726.39c-152.72-38.23-303.09-65-461.14-53.59C92.44,693.1-16,764.8-16,764.8c.48-105.09,2.95-210.17,3.43-315.25l.92-202.21c.05-12.7.1-30,.21-56.31C-11.43,188.66-11.83,191.08-10.42,188.9Z"/><path class="cls-2" d="M1386.16,798.55s98.51,4.83,215.26-16.61c136.16-25,268.44-68.08,268.44-68.08"/><path class="cls-2" d="M1508.16,821.34s81.11-5,200.22-33.72c133.21-32.14,217.41-62.6,217.41-62.6"/></svg>