<svg id="Capa_1" data-name="Capa 1" xmlns="http://www.w3.org/2000/svg" viewBox="0 0 799.5 480.79"><defs><style>.cls-1{opacity:0.36;}.cls-2{fill:#a5a5a5;}</style></defs><title>fondos-1</title><g class="cls-1"><path class="cls-2" d="M799.5,228.07v67.85A93,93,0,0,1,793,329a94.27,94.27,0,0,1-44.53,49.28,93,93,0,0,1-32.29,9.83,98.92,98.92,0,0,1-16.95.41A92.13,92.13,0,0,1,682.48,386a95.65,95.65,0,0,1-30.87-13.7A94.26,94.26,0,0,1,613.32,318a93,93,0,0,1-2.68-16.74c-.38-5.66-.23-11.32-.26-17V250.36l0-135.7v-17c0-1.41,0-2.83-.08-4.23a35,35,0,0,0-.34-4.21,43.62,43.62,0,0,0-23.43-33.13A44.31,44.31,0,0,0,527.91,73.7a43,43,0,0,0-5.23,15.91c0,.35-.11.7-.15,1l0,1.06-.1,2.1c-.11,1.4,0,2.82-.06,4.23v8.48l0,33.93.06,67.85.1,135.69,0,33.92c0,5.64.17,11.33-.41,17A94.45,94.45,0,0,1,519,411.66a93.5,93.5,0,0,1-14.87,30.49,95.7,95.7,0,0,1-24.68,23.31,93.21,93.21,0,0,1-31.3,13.13,95.36,95.36,0,0,1-16.92,2.11,96.87,96.87,0,0,1-17-.78,94.21,94.21,0,0,1-32.31-10.5,94.69,94.69,0,0,1-49.74-84l-.06-67.85L332,181.9,332,114.05V95l-.1-2.07-.11-2.07c-.06-.69-.2-1.37-.3-2l-.31-2c-.1-.69-.33-1.34-.48-2l-.52-2c-.15-.68-.46-1.31-.67-2a42.91,42.91,0,0,0-83.16,10l-.21,4.14v12.72l0,33.92.06,67.85c0,11.32.05,22.57,0,34a87.81,87.81,0,0,1-56,79.49,89.33,89.33,0,0,1-33.59,6H122.65l-67.84,0H29.36a38.42,38.42,0,0,1-8.68-.62,26.2,26.2,0,0,1,0-51.18,39.61,39.61,0,0,1,8.68-.62H54.82l67.84,0h33.93c1.43,0,2.8,0,4.16-.09.69,0,1.37-.1,2.05-.2s1.36-.19,2-.31a33.57,33.57,0,0,0,7.84-2.41,36.6,36.6,0,0,0,20.47-24.32A30.53,30.53,0,0,0,194,241l-.08-4.25V198.61l0-67.85V96.84A95,95,0,0,1,365.45,38.71,94.13,94.13,0,0,1,380.4,69.33a96.2,96.2,0,0,1,3.12,16.82c.1,1.43.23,2.85.31,4.27l.1,4.28v8.49l-.11,135.69-.11,135.7v8.48a68.42,68.42,0,0,0,.35,8.38,42.63,42.63,0,0,0,5.15,15.77,43.53,43.53,0,0,0,25.42,20.4,44.68,44.68,0,0,0,16.56,1.66,43.06,43.06,0,0,0,16-4.36,43.54,43.54,0,0,0,21.64-24.4,29.35,29.35,0,0,0,1.2-4c.16-.67.39-1.34.49-2l.31-2.07c.1-.69.24-1.37.3-2.07l.11-2.09.11-2.09V367.07l0-33.92,0-67.85.11-135.7,0-33.92a95.52,95.52,0,0,1,5.87-33.34A94.33,94.33,0,0,1,553.34,1.62a95.47,95.47,0,0,1,33.78,1.53,94,94,0,0,1,31.11,13.23,95.23,95.23,0,0,1,24.48,23.31,93.29,93.29,0,0,1,17.67,47.13c.54,5.65.35,11.32.38,17l0,67.85,0,67.85,0,33.92v21.2l.21,4.23c.15,1.4.41,2.79.6,4.19s.68,2.74,1,4.11a44.08,44.08,0,0,0,20.63,25.79,43.29,43.29,0,0,0,16,5.24,46.55,46.55,0,0,0,16.79-1.09A44.81,44.81,0,0,0,731.19,330a43.85,43.85,0,0,0,11.5-12.28,43.17,43.17,0,0,0,6-15.72c1-5.57.58-11.27.66-16.91V229.94c0-.71,0-1.41,0-2.12l.11-2.12a25.71,25.71,0,0,1,2.22-8.15A25,25,0,0,1,794,212.38,25.35,25.35,0,0,1,799.5,228.07Zm0,0a25.09,25.09,0,0,0-19.68-24.45,25,25,0,0,0-28.08,13.95,25.63,25.63,0,0,0-2.21,8.14l-.11,2.11c0,.71,0,1.41,0,2.12v55.13c-.09,5.64.31,11.33-.66,16.93a43.18,43.18,0,0,1-6,15.76,44,44,0,0,1-11.52,12.31A45,45,0,0,1,716,337.2a46.81,46.81,0,0,1-16.84,1.1,43.61,43.61,0,0,1-16-5.25,44.22,44.22,0,0,1-20.72-25.87c-.33-1.38-.76-2.74-1-4.13s-.46-2.8-.61-4.2l-.21-4.25V239.48l0-67.85,0-67.85c0-5.65.15-11.31-.38-16.93a94.07,94.07,0,0,0-3-16.65,93.06,93.06,0,0,0-5.92-15.83A94.75,94.75,0,0,0,618,16.68,93.31,93.31,0,0,0,587,3.55,95.09,95.09,0,0,0,553.4,2.08a93.52,93.52,0,0,0-32,10.45,93.71,93.71,0,0,0-49.13,83.15l0,33.92.11,135.7.05,67.85,0,33.92v19.08l-.1,2.15-.11,2.14c-.06.72-.2,1.42-.3,2.13l-.32,2.12c-.1.71-.34,1.4-.5,2.09A29.51,29.51,0,0,1,470,400.9a44.49,44.49,0,0,1-38.68,29.62,45.92,45.92,0,0,1-17-1.68,44.85,44.85,0,0,1-26.23-21,44.15,44.15,0,0,1-5.33-16.25,70.34,70.34,0,0,1-.38-8.55v-8.48l-.11-135.7-.11-135.69,0-8.48-.11-4.2c-.08-1.4-.2-2.79-.31-4.19a93.3,93.3,0,0,0-3.08-16.48,92,92,0,0,0-14.7-30A93,93,0,0,0,196,96.83v33.93l0,67.84v38.16l.08,4.23a32.66,32.66,0,0,1-.88,8.69,37.87,37.87,0,0,1-7.9,15.41,39.82,39.82,0,0,1-6.3,6,37.78,37.78,0,0,1-7.51,4.42,38.78,38.78,0,0,1-17,3.21H122.66l-67.84,0H29.37a37.31,37.31,0,0,0-8.19.57,23.9,23.9,0,0,0,0,46.67,36.12,36.12,0,0,0,8.19.57H54.81l67.84,0h33.93a87.28,87.28,0,0,0,32.79-5.79A85.67,85.67,0,0,0,244,243.32c.07-11.22,0-22.59,0-33.88V94.94l.22-4.33a44.91,44.91,0,0,1,87-10.52c.23.69.54,1.35.7,2l.54,2.1c.16.71.4,1.4.5,2.11l.33,2.14c.1.72.24,1.43.3,2.15l.11,2.16.11,2.17v19.08l-.06,67.85-.1,135.69-.06,67.85a94.88,94.88,0,0,0,5.74,33,93.5,93.5,0,0,0,17.07,28.81,94.51,94.51,0,0,0,26.08,21,93.15,93.15,0,0,0,31.85,10.41,96.34,96.34,0,0,0,16.81.79,93.89,93.89,0,0,0,16.7-2.06,92.16,92.16,0,0,0,30.93-12.91,94.89,94.89,0,0,0,24.42-23A92.64,92.64,0,0,0,518,411.37a94.07,94.07,0,0,0,3.08-16.55c.59-5.59.39-11.24.43-16.91l0-33.92.11-135.69.05-67.85,0-33.93V98c0-1.41,0-2.82.06-4.24l.11-2.13L522,90.6c0-.35.1-.7.15-1a43.51,43.51,0,0,1,5.31-16.1,44.49,44.49,0,0,1,80.87,7.49,43.46,43.46,0,0,1,1.92,8.28,33.2,33.2,0,0,1,.34,4.24c.1,1.42.08,2.83.08,4.24v17l0,135.7v33.92c0,5.65-.13,11.32.25,17a93.73,93.73,0,0,0,40.85,70.93,95.5,95.5,0,0,0,30.8,13.7,91.78,91.78,0,0,0,16.73,2.55,97.57,97.57,0,0,0,16.92-.4,92.35,92.35,0,0,0,32.26-9.8A94.15,94.15,0,0,0,792.94,329a92.82,92.82,0,0,0,6.51-33.09Z"/><path class="cls-2" d="M128.11,372.8a25.17,25.17,0,0,1-2.51,11,25.87,25.87,0,0,1-3.06,4.8c-.3.37-.61.74-.93,1.08l-1,1a20.22,20.22,0,0,1-2.14,1.89,25.24,25.24,0,0,1-21.6,4.62,25.8,25.8,0,0,1-10.15-5.15c-2.91-2.46-5.71-5-8.56-7.51L61.1,369.48,27,339.3,10,324.12c-.71-.63-1.42-1.24-2.12-2l-1.06-1c-.32-.37-.63-.76-1-1.14s-.65-.75-.92-1.16l-.83-1.24A25.23,25.23,0,0,1,2.67,315,26,26,0,0,1,0,303.5,25.52,25.52,0,0,1,2.69,292a26.7,26.7,0,0,1,7.47-9.11,26.12,26.12,0,0,1,22.43-4.63A25.69,25.69,0,0,1,43,283.74c2.89,2.54,5.62,5.12,8.43,7.69l16.77,15.4,33.56,30.79,16.86,15.3a33.27,33.27,0,0,1,4,4.05,24.9,24.9,0,0,1,3.05,4.81A25.34,25.34,0,0,1,128.11,372.8Zm0,0a25.29,25.29,0,0,0-2.57-11,24,24,0,0,0-3.07-4.77,32.32,32.32,0,0,0-4-4l-17-15.18L67.37,307.7,50.31,292.62c-2.85-2.49-5.69-5.07-8.54-7.49a24.74,24.74,0,0,0-9.67-4.92,24.08,24.08,0,0,0-20.61,4.4A24.45,24.45,0,0,0,4.71,293a24.44,24.44,0,0,0,0,21A23.85,23.85,0,0,0,6,316.38l.75,1.13c.25.38.56.71.84,1.07s.56.71.86,1.05l1,1c.62.64,1.34,1.28,2,1.92l16.86,15.3,33.55,30.79L78.65,384c2.8,2.55,5.57,5.17,8.4,7.66a24.63,24.63,0,0,0,31.32.79,19.93,19.93,0,0,0,2.13-1.87l1-1c.32-.34.63-.71.93-1.07a24.9,24.9,0,0,0,5.67-15.73Z"/><path class="cls-2" d="M128.4,234.23a25.35,25.35,0,0,1-2.5,11,24.39,24.39,0,0,1-3,4.81,32.64,32.64,0,0,1-4,4.05L102,269.41,68.44,300.2,51.66,315.6c-2.81,2.56-5.54,5.15-8.43,7.69a25.86,25.86,0,0,1-10.36,5.45,26.18,26.18,0,0,1-22.43-4.63A26.81,26.81,0,0,1,3,315a25.91,25.91,0,0,1,0-23,22.59,22.59,0,0,1,1.47-2.58l.82-1.24c.28-.41.62-.77.93-1.16s.62-.77.95-1.14l1.06-1c.7-.72,1.41-1.33,2.11-2l17-15.17,34.1-30.18,17.07-15.08c2.85-2.5,5.65-5,8.56-7.52a26,26,0,0,1,10.15-5.14,25.26,25.26,0,0,1,21.61,4.63,21.3,21.3,0,0,1,2.13,1.89l1,1c.32.35.62.72.93,1.08a26.23,26.23,0,0,1,3.05,4.81A25.16,25.16,0,0,1,128.4,234.23Zm0,0a25.19,25.19,0,0,0-2.58-11,26,26,0,0,0-3.07-4.76c-.31-.36-.61-.72-.94-1.07l-1-1a18.79,18.79,0,0,0-2.13-1.86,25,25,0,0,0-21.43-4.44,24.73,24.73,0,0,0-9.9,5.21c-2.83,2.49-5.6,5.11-8.4,7.66L62.18,238.4,28.62,269.19l-16.86,15.3c-.7.64-1.42,1.28-2,1.92l-1,1c-.3.34-.58.7-.87,1.05s-.59.69-.84,1.07l-.74,1.14A21,21,0,0,0,5,293a23.76,23.76,0,0,0-2.37,10.51A23.33,23.33,0,0,0,5,314a24.5,24.5,0,0,0,6.77,8.39,24.06,24.06,0,0,0,20.61,4.41,24.67,24.67,0,0,0,9.68-4.9c2.85-2.42,5.69-5,8.54-7.49l17.06-15.08,34.11-30.18,17-15.18a32.32,32.32,0,0,0,4-4,24,24,0,0,0,3.07-4.77A25.29,25.29,0,0,0,128.4,234.23Z"/></g></svg>