<svg id="Capa_1" data-name="Capa 1" xmlns="http://www.w3.org/2000/svg" viewBox="0 0 371.29 709.6"><defs><style>.cls-1{opacity:0.36;}.cls-2{fill:#a5a5a5;}</style></defs><title>fondos-1</title><g class="cls-1"><path class="cls-2" d="M144.14,709.6a15.14,15.14,0,0,1-11.41-5.25,17.34,17.34,0,0,1-3.12-5.62l-2.39-6-9.55-24.07L98.56,620.5l-2.39-6a40.14,40.14,0,0,1-2.09-6.12A25.77,25.77,0,0,1,112,577.86a26.17,26.17,0,0,1,6.4-1c2.16-.06,4.31-.06,6.47-.09l13-.15,25.89-.29,51.79-.59,25.9-.29,12.94-.15,3.24,0,1.62,0a4.41,4.41,0,0,0,.76,0,.92.92,0,0,0,.54-.41,1.41,1.41,0,0,0,.17-.71l.08-.8.15-1.61.31-3.23,9.78-103.12,2.45-25.78,1.22-12.89.61-6.44.31-3.22a20.41,20.41,0,0,1,.5-3.26,15.39,15.39,0,0,1,8.14-10,15.07,15.07,0,0,1,3.11-1.14c1.1-.25,2.16-.41,3.22-.58l3.19-.52,3.17-.61c2.12-.37,4.21-.89,6.32-1.34l3.12-.8c1.05-.26,2.09-.54,3.11-.86a87.4,87.4,0,0,0,12.11-4.37,48.6,48.6,0,0,0,11-6.59,27.57,27.57,0,0,0,4.4-4.57l.85-1.33.42-.67c.12-.23.22-.47.34-.71l.65-1.43c.16-.5.36-1,.49-1.49a24.13,24.13,0,0,0-.35-12.53,51,51,0,0,0-4.95-11.79q-1.57-2.81-3.41-5.44c-.6-.9-1.24-1.68-1.92-2.6a17.25,17.25,0,0,1-1.62-2.89l-5.63-11.68-5.25-11.85c-1.69-4-3.27-8-4.91-12s-3-8.09-4.56-12.14-2.81-8.17-4.21-12.26-2.62-8.24-3.81-12.4-2.41-8.3-3.44-12.5A353,353,0,0,1,286,205.7a196.58,196.58,0,0,0-13.87-49.53,175.68,175.68,0,0,0-27.07-43.64,189.23,189.23,0,0,0-38.34-34.22,233.36,233.36,0,0,0-45.61-23.88A275.15,275.15,0,0,0,111.6,40.14c-4.23-.79-8.47-1.49-12.73-2-2.14-.28-4.23-.5-6.42-.71L86,36.56Q73.19,35,60.3,33.94c-8.59-.72-17.19-1.27-25.8-1.59q-6.46-.24-12.91-.28H18.36c-1.09,0-2.12,0-3.3,0a16,16,0,0,1-6.6-1.85A16.24,16.24,0,0,1,.37,19.49,16,16,0,0,1,15,.05c4.42-.1,8.68,0,13,.05C45.36.51,62.61,1.82,79.8,3.64c4.3.45,8.59,1,12.88,1.5l3.2.42,3.22.37c2.16.27,4.3.58,6.44.91C114.1,8.19,122.59,10,131,12A316.63,316.63,0,0,1,180.17,28.6a270.58,270.58,0,0,1,45.51,24.93,225.09,225.09,0,0,1,39.22,34A201.22,201.22,0,0,1,294.64,130a213,213,0,0,1,18.18,48.57,259.36,259.36,0,0,1,4.82,25.51c.39,4.34,1,8.55,1.66,12.82.34,2.13.69,4.25,1.09,6.37l.58,3.17.63,3.17A403.66,403.66,0,0,0,355,327.16l0-.08a93.2,93.2,0,0,1,9.25,15.56A77.26,77.26,0,0,1,370,359.79a55.19,55.19,0,0,1,.87,18.08,49,49,0,0,1-1.93,8.88,40.45,40.45,0,0,1-1.63,4.25l-.91,2.08c-.34.68-.71,1.34-1.07,2a52.51,52.51,0,0,1-11.32,14.1,73,73,0,0,1-15,10.11,115.72,115.72,0,0,1-16.7,6.89,178.71,178.71,0,0,1-17.48,4.54l.28-.32-7.95,81.52-4,40.76-2,20.38a53.51,53.51,0,0,1-1.57,10.13,31.42,31.42,0,0,1-20.9,21c-.82.23-1.66.42-2.49.64s-1.69.27-2.53.42a22.11,22.11,0,0,1-2.56.22c-.86.06-1.71.08-2.56.08l-10.24.11-40.95.42-81.9.84,0-.09,21.65,54.7,10.83,27.34a15.05,15.05,0,0,1-6.87,19A15,15,0,0,1,144.14,709.6Zm0,0a15.12,15.12,0,0,0,7.06-1.78A15,15,0,0,0,158,688.9l-10.86-27.34-21.7-54.67,0-.08h.1l81.9-.93,40.95-.46,10.23-.12c.86,0,1.71,0,2.56-.08a21.41,21.41,0,0,0,2.53-.22c.84-.15,1.69-.22,2.51-.42s1.66-.4,2.47-.63a31.15,31.15,0,0,0,16.22-11.72,30.76,30.76,0,0,0,4.46-9.11A52.24,52.24,0,0,0,290.91,573l1.94-20.38,3.86-40.77,7.73-81.54,0-.26.26-.06c5.86-1.27,11.68-2.73,17.38-4.57a113.27,113.27,0,0,0,16.57-6.89,71.48,71.48,0,0,0,14.79-10,51.58,51.58,0,0,0,11.1-13.89c.35-.65.71-1.3,1.05-2l.88-2a42.06,42.06,0,0,0,1.59-4.17,49,49,0,0,0,1.87-8.71,54.72,54.72,0,0,0-.91-17.77,76.69,76.69,0,0,0-5.78-16.9,92.38,92.38,0,0,0-9.19-15.35l0,0,0,0a405,405,0,0,1-33.78-97.79l-.65-3.18L319,223.5q-.6-3.19-1.11-6.4c-.68-4.25-1.31-8.59-1.7-12.84-1.21-8.53-2.81-17-4.86-25.35a211.78,211.78,0,0,0-18.17-48.15,201.84,201.84,0,0,0-29.57-42.08A222.3,222.3,0,0,0,224.65,55a269.06,269.06,0,0,0-45.23-24.71,314.11,314.11,0,0,0-48.89-16.41c-8.36-2.07-16.8-3.81-25.29-5.14q-3.18-.49-6.38-.9l-3.21-.36L92.43,7.1Q86,6.29,79.59,5.62C62.44,3.82,45.23,2.53,28,2.15c-4.28-.08-8.66-.15-12.86,0a14,14,0,0,0-12.79,17,14.25,14.25,0,0,0,7.05,9.35A14.22,14.22,0,0,0,15.18,30c1,.08,2.11,0,3.17,0H21.6q6.48,0,13,.29c8.65.33,17.28.9,25.89,1.62s17.21,1.62,25.8,2.66l6.41.82c2.11.21,4.32.44,6.45.73,4.3.57,8.58,1.28,12.83,2.08A277.11,277.11,0,0,1,161.8,52.71a234.8,234.8,0,0,1,45.94,24.11,191.05,191.05,0,0,1,38.66,34.59,177.11,177.11,0,0,1,27.22,44.13,198,198,0,0,1,13.84,50,351.52,351.52,0,0,0,9.38,50.8c1,4.19,2.24,8.32,3.4,12.47s2.52,8.25,3.77,12.37,2.73,8.17,4.16,12.24,2.95,8.1,4.51,12.12,3.19,8,4.87,12l5.21,11.83L328.34,341a15.55,15.55,0,0,0,1.53,2.75c.6.82,1.32,1.72,1.92,2.61q1.84,2.68,3.44,5.54a52.13,52.13,0,0,1,5,12,25.11,25.11,0,0,1,.31,13.05c-.14.54-.35,1-.52,1.58l-.7,1.51c-.12.25-.23.51-.36.75l-.44.7-.9,1.39a28,28,0,0,1-4.57,4.73,49.17,49.17,0,0,1-11.18,6.69,88.66,88.66,0,0,1-12.23,4.39c-1,.32-2.09.6-3.14.85l-3.15.79c-2.11.46-4.22,1-6.35,1.34l-3.19.6-3.2.52c-1.07.17-2.14.33-3.15.55a15.62,15.62,0,0,0-3,1.07,14.7,14.7,0,0,0-4.91,3.88,14.88,14.88,0,0,0-2.84,5.57,20.15,20.15,0,0,0-.49,3.14l-.31,3.22-.63,6.44-1.26,12.89-2.52,25.77L261.5,568.45l-.32,3.22-.16,1.61-.07.81a1.79,1.79,0,0,1-.22.84,1.34,1.34,0,0,1-.73.55,4.24,4.24,0,0,1-.85,0l-1.62,0-3.23,0-13,.13-25.9.27-51.78.53-25.9.27-13,.13c-2.15,0-4.31,0-6.47.08A25.65,25.65,0,0,0,94.2,608.33a39.28,39.28,0,0,0,2.08,6.11l2.38,6,19.06,48.16,9.52,24.08,2.39,6a17.21,17.21,0,0,0,3.11,5.62A15.11,15.11,0,0,0,144.14,709.6Z"/></g></svg>