<svg id="Capa_1" data-name="Capa 1" xmlns="http://www.w3.org/2000/svg" viewBox="0 0 423.05 703.49"><defs><style>.cls-1{opacity:0.36;}.cls-2{fill:#a5a5a5;}</style></defs><title>fondos-1</title><g class="cls-1"><path class="cls-2" d="M222.37,703.49h-59.7a81.47,81.47,0,0,1-29.14-5.71,82.88,82.88,0,0,1-52-67.59,85.32,85.32,0,0,1,1.87-29.66,84,84,0,0,1,12.07-27.16,83,83,0,0,1,47.78-33.69A81.62,81.62,0,0,1,158,537.31c5-.34,10-.2,14.93-.23h29.85l119.4,0h14.92c1.25,0,2.49,0,3.73-.07a30.59,30.59,0,0,0,3.7-.3,37.12,37.12,0,0,0,7.22-1.68,38.83,38.83,0,0,0,6.47-70.47,37.69,37.69,0,0,0-14-4.59,59,59,0,0,0-7.42-.32h-7.46l-29.85,0-59.7,0-119.4.1-29.85,0c-5,0-10,.15-15-.36A83,83,0,0,1,34,443.63a84.11,84.11,0,0,1-20.51-21.72A82,82,0,0,1,1.94,394.37,83,83,0,0,1,.08,379.48a86.27,86.27,0,0,1,.68-15A83,83,0,0,1,10,336.08,83.35,83.35,0,0,1,83.9,292.3l59.7,0,119.4-.1,59.7-.05h16.79l1.82-.1,1.82-.09c.61-.05,1.2-.17,1.81-.26l1.8-.28a18.19,18.19,0,0,0,1.77-.42A25,25,0,0,0,352,289.9a37.73,37.73,0,0,0,5-69,37.52,37.52,0,0,0-13.87-4.18l-3.64-.18H328.32l-29.85,0-59.69,0c-10,0-19.87,0-29.89,0a77.25,77.25,0,0,1-69.95-49.28,78.81,78.81,0,0,1-5.24-29.56V107.92l0-59.7V25.84a34.46,34.46,0,0,1,.55-7.65,23.06,23.06,0,0,1,45,0,35.05,35.05,0,0,1,.54,7.65V48.23l0,59.7v29.85a32.18,32.18,0,0,0,2.65,14.15,32.21,32.21,0,0,0,21.41,18,26.82,26.82,0,0,0,7.15.72l3.75-.06h33.58l59.7,0h29.86a83.71,83.71,0,0,1,74.66,43,83.57,83.57,0,0,1,9.66,28.41A83.51,83.51,0,0,1,389,321.56a82.79,82.79,0,0,1-26.94,13.16,83.68,83.68,0,0,1-14.8,2.74c-1.26.09-2.51.2-3.76.27l-3.77.1h-7.46l-119.4-.1-119.4-.09H86a60,60,0,0,0-7.37.31,37.56,37.56,0,0,0-13.88,4.53,38.32,38.32,0,0,0-17.95,22.37,39.55,39.55,0,0,0-1.46,14.57,37.88,37.88,0,0,0,3.84,14.09,38.28,38.28,0,0,0,21.47,19.05,26.91,26.91,0,0,0,3.52,1.06c.6.13,1.18.34,1.79.42l1.82.28c.61.09,1.21.21,1.82.26l1.84.1,1.84.09h16.79l29.85,0,59.7.05,119.4.09,29.85,0a83,83,0,0,1,73.57,43.61,82.66,82.66,0,0,1,9.19,28.31,83.62,83.62,0,0,1-33.49,78.64,81.36,81.36,0,0,1-26.78,12.93,83.15,83.15,0,0,1-14.69,2.62c-5,.47-10,.3-14.93.33l-59.7,0-59.7,0h-48.5l-3.72.18c-1.24.13-2.46.36-3.69.54s-2.41.59-3.61.88a38.82,38.82,0,0,0-22.7,18.15,38.3,38.3,0,0,0-4.61,14.07,40.87,40.87,0,0,0,1,14.78,39,39,0,0,0,17,23.55,38.29,38.29,0,0,0,13.83,5.26c4.91.86,9.92.51,14.89.59H217c2.49,0,5-.08,7.47.11a22.54,22.54,0,0,1,7.16,1.95,22.07,22.07,0,0,1,12.29,24.75,22.09,22.09,0,0,1-21.54,17.31Zm0,0a22,22,0,0,0,19.72-31.83,21.94,21.94,0,0,0-10.48-10.2,22.86,22.86,0,0,0-7.16-1.94c-2.48-.18-5-.07-7.46-.1H172.22c-5-.07-10,.28-14.9-.58a37.89,37.89,0,0,1-13.87-5.27A39.09,39.09,0,0,1,126.35,630a41.15,41.15,0,0,1-1-14.83A38.33,38.33,0,0,1,130,601.05a38.93,38.93,0,0,1,22.76-18.23c1.22-.29,2.41-.67,3.63-.89s2.46-.41,3.7-.54l3.74-.19h48.5l59.7,0,59.7,0c5,0,10,.13,14.91-.34a82.76,82.76,0,0,0,14.64-2.62A81.38,81.38,0,0,0,388,565.29a83.57,83.57,0,0,0,20.41-21.48,82,82,0,0,0,11.56-27.27,83.48,83.48,0,0,0,1.29-29.6A82.13,82.13,0,0,0,412,458.8a82.44,82.44,0,0,0-73.17-43.23l-29.85,0-119.4.1-59.7,0-29.85,0H83.27l-1.89-.09-1.88-.1c-.63-.05-1.25-.17-1.87-.26L75.76,415c-.63-.08-1.23-.29-1.84-.43a26.88,26.88,0,0,1-3.62-1.08A39.34,39.34,0,0,1,48.2,394a38.94,38.94,0,0,1-4-14.49,40.52,40.52,0,0,1,1.48-15,39.5,39.5,0,0,1,18.46-23.08,38.93,38.93,0,0,1,14.3-4.69,61.47,61.47,0,0,1,7.52-.33h7.47l119.4-.09,119.4-.1c5,0,9.94.13,14.84-.38a82.16,82.16,0,0,0,14.5-2.71A81,81,0,0,0,388,320.19a81.85,81.85,0,0,0-50.13-147.7H308l-59.7,0H214.72l-3.71.07a28.54,28.54,0,0,1-7.65-.77,34.18,34.18,0,0,1-22.74-19.11,34.24,34.24,0,0,1-2.83-14.94V107.93l0-59.7V25.85a32.74,32.74,0,0,0-.5-7.21,21,21,0,0,0-41.07,0,32.14,32.14,0,0,0-.5,7.21V48.22l0,59.7v29.85a75.47,75.47,0,0,0,44.73,70.48A75.64,75.64,0,0,0,209,214.73c9.88.07,19.88,0,29.81,0H339.51l3.82.19a39.52,39.52,0,0,1,9.25,76.59,27.37,27.37,0,0,1-3.65,1.1c-.62.14-1.23.34-1.86.44l-1.88.28c-.63.09-1.26.21-1.89.27l-1.91.1-1.9.09H322.7l-59.7-.05-119.4-.09-59.7-.05a83.26,83.26,0,0,0-29,5.05,82.27,82.27,0,0,0-25.35,15A83.27,83.27,0,0,0,11,336.63a81.86,81.86,0,0,0-9.15,28A87.29,87.29,0,0,0,3,394.14a80.94,80.94,0,0,0,11.37,27.22,83,83,0,0,0,20.22,21.48,82,82,0,0,0,41.08,15.69c4.92.52,9.89.35,14.87.38l29.85,0,119.4.09,59.7.05,29.85,0h7.46a62.4,62.4,0,0,1,7.48.33,38.18,38.18,0,0,1,14.16,4.68,39.15,39.15,0,0,1-6.59,71.16,37.71,37.71,0,0,1-7.28,1.68,29.16,29.16,0,0,1-3.73.31c-1.25.09-2.49.06-3.74.07H322.16l-119.4,0H172.91c-5,0-10-.11-14.91.22a81.13,81.13,0,0,0-14.7,2.35,82.89,82.89,0,0,0-47.71,33.6,83.9,83.9,0,0,0-12.06,27.1,84.81,84.81,0,0,0-1.89,29.61,82.75,82.75,0,0,0,81,73.28Z"/><path class="cls-2" d="M95,112.73a22.16,22.16,0,0,1-21.49-27.5,22.86,22.86,0,0,1,4.53-8.93c2.17-2.55,4.41-5,6.62-7.53L98,53.76l26.55-30L137.85,8.81c.56-.62,1.1-1.24,1.73-1.86L140.5,6c.33-.29.67-.56,1-.84a17.8,17.8,0,0,1,2.11-1.54,21.08,21.08,0,0,1,2.27-1.29A22.7,22.7,0,0,1,156,0a22.38,22.38,0,0,1,10.1,2.37,23.44,23.44,0,0,1,8,6.57,23,23,0,0,1,4.07,19.73,22.53,22.53,0,0,1-4.8,9.12c-2.24,2.54-4.51,4.94-6.77,7.42L153.07,60,126,89.49l-13.47,14.84a23.46,23.46,0,0,1-7.79,6.2A22.34,22.34,0,0,1,95,112.73Zm0,0a22.28,22.28,0,0,0,9.66-2.27,23.32,23.32,0,0,0,7.72-6.23l13.36-14.94,26.54-30,13.27-15c2.2-2.5,4.47-5,6.6-7.51a21.75,21.75,0,0,0,4.32-8.51A21.08,21.08,0,0,0,156,2.05a20.85,20.85,0,0,0-9.25,2.07,20.16,20.16,0,0,0-2.08,1.17,15.65,15.65,0,0,0-1.94,1.4c-.31.25-.63.49-.93.76l-.84.84c-.57.54-1.13,1.18-1.69,1.8L125.8,24.92,98.7,54.44,85.15,69.2c-2.24,2.47-4.55,4.9-6.74,7.4a21.65,21.65,0,0,0-4.59,8.71A22,22,0,0,0,95,112.73Z"/><path class="cls-2" d="M217,113a22.2,22.2,0,0,1-9.7-2.2,23.46,23.46,0,0,1-7.79-6.2L186,89.75,158.9,60.22,145.35,45.46c-2.25-2.48-4.53-4.88-6.76-7.42a22.65,22.65,0,0,1-4.8-9.12,23,23,0,0,1,4.08-19.73,23.44,23.44,0,0,1,8-6.57A22.37,22.37,0,0,1,156,.26,22.69,22.69,0,0,1,168.37,3.9a16.12,16.12,0,0,1,2.11,1.55c.34.27.68.54,1,.83l.92.93c.63.62,1.17,1.24,1.73,1.86L187.49,24l26.56,30,13.27,15c2.2,2.52,4.44,5,6.61,7.54a22.77,22.77,0,0,1,4.52,8.93,22.21,22.21,0,0,1-4.07,19,17.42,17.42,0,0,1-1.67,1.87l-.89.89c-.31.28-.63.55-.95.81a23.11,23.11,0,0,1-4.23,2.69A22.13,22.13,0,0,1,217,113Zm0,0a22,22,0,0,0,9.66-2.27,22.52,22.52,0,0,0,4.19-2.7c.32-.27.64-.54.94-.82l.88-.89a16.36,16.36,0,0,0,1.64-1.88,22,22,0,0,0,3.9-18.84,21.73,21.73,0,0,0-4.58-8.72c-2.19-2.49-4.5-4.92-6.74-7.39L213.28,54.71,186.19,25.19,172.72,10.35c-.56-.62-1.12-1.25-1.69-1.79l-.85-.85c-.3-.26-.61-.5-.92-.76a15.58,15.58,0,0,0-1.94-1.39,20.31,20.31,0,0,0-2.09-1.17A20.78,20.78,0,0,0,156,2.31a20.35,20.35,0,0,0-9.23,2.09,21.38,21.38,0,0,0-7.39,6,21.13,21.13,0,0,0-3.88,18.13A21.77,21.77,0,0,0,139.8,37c2.13,2.51,4.4,5,6.59,7.51l13.27,15,26.55,30,13.36,14.93a23.35,23.35,0,0,0,7.72,6.24A22.27,22.27,0,0,0,217,113Z"/></g></svg>