<svg id="Capa_1" data-name="Capa 1" xmlns="http://www.w3.org/2000/svg" viewBox="0 0 1925.3 477.24"><defs><style>.cls-1{fill:none;stroke:#a5a5a5;stroke-miterlimit:10;stroke-width:0.75px;}.cls-2{fill:#003742;}</style></defs><title>que-es-ruta-tic2</title><path class="cls-1" d="M5.21,346.13C75.73,319.1,153.12,312,228,322.05c80.51,10.86,151.85,37.5,220.86,61.76,75.5,26.55,144.86,51.29,224.61,59.74,31.45,3.33,66,6.91,106.85,6.91"/><path class="cls-1" d="M3.33,375.83c96-41.69,205.7-36,304.28-6.71,94.6,28.13,177.57,64.79,282.16,90.08"/><path class="cls-2" d="M-15.49-10.77H1934.42l1,371.28s-222.87-42.64-448.49-42.64C1252,317.87,1097,380.73,900.56,408a910.08,910.08,0,0,1-297.73-8.16c-98-19-187.18-62.28-283-88.51-28.58-7.82-57.67-13.81-87.17-16.78-79.88-8-173,2.63-248.19,30.14Z"/></svg>